<svg xmlns="http://www.w3.org/2000/svg" width="320" height="320" viewBox="0 0 320 320" data-rig="round-traveler-v1">
<g data-plane="sleeve-far" data-anchor="shoulder-far" fill="#9bb9a2" stroke="#303047" stroke-width="3" stroke-linecap="round" stroke-linejoin="round"><path d="M132 159 Q116 158 110 174 L98 211 L120 221 L140 180Z"/><path d="M101 203 L124 213" fill="none"/></g>
<g data-plane="bottom" data-anchor="hips" fill="#bd8b69" stroke="#303047" stroke-width="3" stroke-linecap="round" stroke-linejoin="round"><path d="M129 216 H191 L194 273 H168 L164 240 H158 L154 273 H126Z"/></g>
<g data-plane="shoe-far" data-anchor="foot-far" fill="#e1bc8b" stroke="#303047" stroke-width="3" stroke-linecap="round" stroke-linejoin="round"><path d="M129 267 H155 V282 H114 Q114 271 129 270Z"/><path d="M118 276 L130 272 L139 278 L150 272" fill="none"/></g>
<g data-plane="shoe-near" data-anchor="foot-near" fill="#e1bc8b" stroke="#303047" stroke-width="3" stroke-linecap="round" stroke-linejoin="round"><path d="M167 267 H193 V270 Q208 270 209 282 H167Z"/><path d="M172 272 L183 278 L193 272 L204 276" fill="none"/></g>
<g data-plane="top-front" data-anchor="torso" fill="#f4eddc" stroke="#303047" stroke-width="3" stroke-linecap="round" stroke-linejoin="round"><path d="M136 159 L160 174 L184 159 L194 178 L198 247 L176 253 L160 239 L144 253 L122 247 L126 178Z"/><path d="M140 164 L149 191 L160 178 L171 191 L180 164" fill="#9bb9a2"/><path d="M160 185 V239 M135 212 H149 M171 212 H185" fill="none"/><path d="M156 177 L147 183 L156 188 L160 182 L164 188 L173 183 L164 177Z" fill="#d39b84"/><circle cx="165" cy="201" r="2" fill="#bd8b69"/><circle cx="165" cy="220" r="2" fill="#bd8b69"/></g>
<g data-plane="sleeve-near" data-anchor="shoulder-near" fill="#9bb9a2" stroke="#303047" stroke-width="3" stroke-linecap="round" stroke-linejoin="round"><path d="M188 159 Q204 158 210 174 L222 211 L200 221 L180 180Z"/><path d="M196 213 L219 203" fill="none"/></g>
</svg>
